<svg width="360" height="50" viewBox="0 0 360 50" fill="none" xmlns="http://www.w3.org/2000/svg">
<rect width="360" height="50" fill="#FF3E71"/>
<g opacity="0.16">
<mask id="mask0" mask-type="alpha" maskUnits="userSpaceOnUse" x="0" y="0" width="360" height="50">
<rect width="360" height="50" fill="#EF883D"/>
</mask>
<g mask="url(#mask0)">
<g clip-path="url(#clip0)">
<path d="M277.838 47.8704L263.503 62.2056L248.201 46.9036C247.633 46.3373 246.908 46.0228 246.166 45.9616L261.047 31.0804L277.838 47.8704ZM262.683 63.0268L261.605 64.1057L247.792 50.2931C247.565 50.066 247.198 50.066 246.971 50.2931C246.744 50.5202 246.744 50.8871 246.971 51.1142L260.783 64.9268L259.705 66.0057L244.403 50.7037C243.581 49.8825 243.581 48.5474 244.403 47.7263C245.224 46.9051 246.559 46.9051 247.38 47.7263L262.683 63.0268ZM259.294 67.2359C259.52 67.4631 259.888 67.4631 260.115 67.2359L263.915 63.4359L279.072 48.2795C279.299 48.0524 279.299 47.684 279.072 47.4584L261.459 29.8458C261.232 29.6186 260.865 29.6186 260.638 29.8458L243.581 46.9022C242.307 48.1761 242.307 50.2494 243.581 51.5234L259.294 67.2359Z" fill="white"/>
<path d="M257.591 40.0651L261.185 36.4703L272.447 47.7321L268.852 51.3268L257.591 40.0651ZM256.359 39.6545C256.132 39.8816 256.132 40.2485 256.359 40.4756L268.443 52.56C268.67 52.7871 269.037 52.7871 269.264 52.56L273.68 48.1441C273.907 47.917 273.907 47.5486 273.68 47.323L261.597 35.2386C261.37 35.0115 261.002 35.0115 260.776 35.2386L256.359 39.6545Z" fill="white"/>
<path d="M302.212 43.4443C302.584 43.8156 302.595 44.4082 302.258 44.7998L295.436 45.5409L296.412 38.9222C296.804 38.5989 297.383 38.6164 297.749 38.9818C297.936 39.1697 298.041 39.4201 298.041 39.6865C298.041 39.953 297.938 40.2034 297.749 40.3912C297.521 40.6183 297.521 40.9867 297.749 41.2124C297.813 41.2764 297.888 41.3201 297.967 41.3478C298.171 41.4191 298.407 41.3754 298.57 41.2124C298.947 40.8353 299.603 40.8353 299.98 41.2124C300.369 41.6011 300.369 42.233 299.98 42.6217C299.753 42.8488 299.753 43.2157 299.98 43.4429C300.208 43.67 300.576 43.67 300.802 43.4429C300.989 43.255 301.24 43.1517 301.506 43.1517C301.774 43.1531 302.025 43.2565 302.212 43.4443ZM297.692 37.6278L312.219 23.1004L318.116 28.9955L303.578 43.5346C303.479 43.1997 303.299 42.8852 303.035 42.6217C302.595 42.1806 302.01 41.9738 301.431 41.9942C301.451 41.4162 301.244 40.8309 300.803 40.3897C300.395 39.9821 299.854 39.7564 299.276 39.7564C299.25 39.7564 299.225 39.7593 299.199 39.7608C299.2 39.7346 299.203 39.7098 299.203 39.6851C299.203 39.1085 298.977 38.5669 298.571 38.1578C298.316 37.9059 298.013 37.7283 297.692 37.6278ZM315.578 21.4683C316.692 21.4683 317.739 21.9021 318.526 22.6898C319.314 23.4775 319.748 24.5243 319.748 25.6381C319.748 26.5553 319.449 27.4245 318.906 28.1438L313.074 22.3113C313.792 21.7667 314.661 21.4683 315.578 21.4683ZM302.648 45.9253C302.779 45.9107 302.903 45.8525 302.996 45.7578L319.347 29.4061C320.355 28.4 320.908 27.0606 320.908 25.6366C320.908 24.2127 320.354 22.8747 319.347 21.8672C318.341 20.8597 317.002 20.305 315.578 20.305C314.154 20.305 312.815 20.8597 311.809 21.8672L295.525 38.152C295.522 38.1549 295.521 38.1563 295.518 38.1592C295.517 38.1607 295.517 38.1621 295.515 38.1636L295.457 38.2218C295.369 38.3107 295.311 38.4242 295.292 38.548L294.177 46.116C294.151 46.2936 294.209 46.4741 294.333 46.6037C294.442 46.7187 294.595 46.7813 294.751 46.7813C294.773 46.7813 294.793 46.7799 294.813 46.7784L302.648 45.9253Z" fill="white"/>
<path d="M304.35 40.0155C304.123 39.7884 304.123 39.4201 304.35 39.1944L314.482 29.0625C314.709 28.8353 315.076 28.8353 315.303 29.0625C315.53 29.2896 315.53 29.6579 315.303 29.8836L305.171 40.0155C305.058 40.1291 304.909 40.1859 304.761 40.1859C304.612 40.1859 304.464 40.1291 304.35 40.0155Z" fill="white"/>
<path d="M301.584 40.1918C301.435 40.1918 301.287 40.135 301.173 40.0214C300.946 39.7943 300.946 39.4274 301.173 39.2003L311.307 29.0669C311.534 28.8397 311.901 28.8397 312.128 29.0669C312.355 29.294 312.355 29.6624 312.128 29.888L301.996 40.02C301.881 40.135 301.732 40.1918 301.584 40.1918Z" fill="white"/>
<path d="M301.59 37.0134C301.441 37.0134 301.293 36.9566 301.179 36.843C300.952 36.6159 300.952 36.249 301.179 36.0219L311.311 25.8885C311.538 25.6614 311.905 25.6614 312.132 25.8885C312.359 26.1156 312.359 26.484 312.132 26.7096L302 36.8416C301.887 36.9566 301.738 37.0134 301.59 37.0134Z" fill="white"/>
<path d="M319.51 -5.34737C319.432 -5.12169 319.499 -4.87127 319.679 -4.71549L321.173 -3.42552L320.152 -1.658L318.286 -2.30735C318.06 -2.38597 317.81 -2.319 317.655 -2.13846C317.332 -1.76283 316.977 -1.40757 316.601 -1.08435C316.421 -0.928569 316.354 -0.678145 316.432 -0.453929L317.082 1.41259L315.316 2.43321L314.027 0.93941C313.871 0.758873 313.619 0.690442 313.395 0.770519C312.928 0.935041 312.443 1.06462 311.954 1.15634C311.719 1.20002 311.535 1.38347 311.489 1.61788L311.12 3.5572H309.078L308.709 1.61788C308.663 1.38347 308.48 1.20002 308.246 1.15634C307.755 1.06462 307.27 0.935041 306.803 0.770519C306.74 0.74868 306.676 0.738489 306.612 0.738489C306.446 0.738489 306.284 0.809831 306.172 0.93941L304.884 2.43321L303.116 1.41259L303.767 -0.453929C303.846 -0.679601 303.779 -0.930026 303.598 -1.08581C303.223 -1.40903 302.867 -1.76428 302.543 -2.13992C302.387 -2.32045 302.136 -2.38743 301.912 -2.30881L300.046 -1.65945L299.025 -3.42697L300.519 -4.71694C300.699 -4.87273 300.766 -5.12315 300.688 -5.34882C300.525 -5.81618 300.395 -6.30101 300.303 -6.79021C300.26 -7.02461 300.076 -7.20806 299.842 -7.2532L297.903 -7.62301V-9.66279L299.842 -10.0326C300.076 -10.0777 300.26 -10.2612 300.303 -10.4956C300.395 -10.9848 300.525 -11.4696 300.689 -11.9384C300.768 -12.1641 300.701 -12.4145 300.52 -12.5703L299.027 -13.8588L300.047 -15.6263L301.914 -14.977C302.138 -14.8984 302.39 -14.9653 302.544 -15.1459C302.867 -15.5215 303.223 -15.8768 303.6 -16.2C303.78 -16.3558 303.847 -16.6062 303.769 -16.8304L303.119 -18.6969L304.887 -19.7176L306.175 -18.2238C306.331 -18.0432 306.581 -17.9762 306.807 -18.0549C307.274 -18.2179 307.759 -18.3475 308.248 -18.4392C308.483 -18.4829 308.666 -18.6664 308.711 -18.9008L309.081 -20.8401H311.123L311.492 -18.9008C311.537 -18.6664 311.721 -18.4829 311.957 -18.4392C312.446 -18.3475 312.931 -18.2179 313.398 -18.0549C313.624 -17.9762 313.874 -18.0432 314.03 -18.2238L315.319 -19.7176L317.086 -18.6984L316.437 -16.8319C316.358 -16.6062 316.425 -16.3558 316.606 -16.2014C316.981 -15.8782 317.336 -15.523 317.66 -15.1473C317.815 -14.9668 318.066 -14.8998 318.292 -14.9784L320.158 -15.6278L321.179 -13.8603L319.685 -12.5718C319.504 -12.416 319.437 -12.1656 319.516 -11.9399C319.681 -11.4725 319.809 -10.9877 319.902 -10.4985C319.946 -10.2641 320.129 -10.0792 320.363 -10.0355L322.303 -9.6657V-7.62592L320.363 -7.25611C320.129 -7.21098 319.946 -7.02753 319.902 -6.79312C319.803 -6.29955 319.675 -5.81327 319.51 -5.34737ZM320.957 -6.18308L322.988 -6.57036C323.262 -6.62277 323.46 -6.863 323.46 -7.14109V-10.1418C323.46 -10.4199 323.262 -10.6601 322.988 -10.7125L320.957 -11.0998C320.893 -11.3837 320.818 -11.6647 320.732 -11.9428L322.297 -13.2925C322.508 -13.4745 322.559 -13.7817 322.421 -14.0233L320.92 -16.6222C320.78 -16.8639 320.49 -16.9716 320.225 -16.8799L318.271 -16.2C318.075 -16.4126 317.869 -16.6178 317.657 -16.8144L318.337 -18.7683C318.428 -19.0303 318.321 -19.3244 318.079 -19.4613L315.479 -20.9624C315.237 -21.1022 314.931 -21.0497 314.749 -20.8401L313.4 -19.2749C313.123 -19.3608 312.841 -19.4366 312.557 -19.5006L312.169 -21.5317C312.117 -21.8054 311.877 -22.0034 311.599 -22.0034H308.596C308.318 -22.0034 308.078 -21.8054 308.026 -21.5317L307.638 -19.5006C307.355 -19.4366 307.074 -19.3608 306.797 -19.2749L305.447 -20.8401C305.265 -21.0497 304.958 -21.1022 304.716 -20.9624L302.117 -19.4613C301.876 -19.3215 301.768 -19.0303 301.86 -18.7668L302.54 -16.8129C302.327 -16.6164 302.122 -16.4111 301.925 -16.1985L299.971 -16.8785C299.708 -16.9702 299.417 -16.861 299.277 -16.6208L297.776 -14.0219C297.636 -13.7802 297.688 -13.4745 297.9 -13.291L299.463 -11.9413C299.377 -11.6647 299.303 -11.3823 299.239 -11.0984L297.208 -10.7111C296.934 -10.6587 296.736 -10.4184 296.736 -10.1403V-7.13963C296.736 -6.86155 296.934 -6.62132 297.208 -6.5689L299.239 -6.18162C299.303 -5.89771 299.377 -5.61672 299.463 -5.34009L297.9 -3.99042C297.688 -3.80843 297.636 -3.50123 297.776 -3.25954L299.277 -0.660677C299.417 -0.41899 299.708 -0.309791 299.971 -0.402971L301.925 -1.0829C302.122 -0.870333 302.327 -0.665042 302.54 -0.468489L301.86 1.48539C301.768 1.74892 301.876 2.0401 302.117 2.17988L304.716 3.68096C304.958 3.82073 305.265 3.76831 305.447 3.5572L306.797 1.99351C307.074 2.07941 307.356 2.15512 307.638 2.21919L308.026 4.25023C308.078 4.52395 308.318 4.72196 308.596 4.72196H311.599C311.877 4.72196 312.117 4.52395 312.169 4.25023L312.557 2.22064C312.841 2.15658 313.123 2.08087 313.4 1.99497L314.749 3.55866C314.931 3.76977 315.238 3.82218 315.479 3.68241L318.078 2.18133C318.318 2.04156 318.427 1.75037 318.335 1.48684L317.655 -0.467035C317.868 -0.663588 318.073 -0.868875 318.27 -1.08144L320.225 -0.401518C320.489 -0.309793 320.78 -0.418988 320.92 -0.659219L322.421 -3.25808C322.56 -3.49977 322.508 -3.80698 322.297 -3.98751L320.733 -5.33717C320.818 -5.61817 320.893 -5.89917 320.957 -6.18308Z" fill="white"/>
<path d="M278.83 27.6837C272.103 27.6837 266.63 22.2108 266.63 15.4829C266.63 8.75644 272.103 3.28354 278.83 3.28354C285.556 3.28354 291.029 8.75644 291.029 15.4829C291.029 22.2108 285.557 27.6837 278.83 27.6837ZM292.192 15.4844C292.192 8.11728 286.198 2.12315 278.831 2.12315C271.464 2.12315 265.47 8.11728 265.47 15.4844C265.47 22.8529 271.464 28.8456 278.831 28.8456C286.198 28.8456 292.192 22.8515 292.192 15.4844Z" fill="white"/>
<path d="M279.926 15.758L283.608 19.4401C283.835 19.6672 283.835 20.0356 283.608 20.2613C283.495 20.3748 283.346 20.4316 283.198 20.4316C283.049 20.4316 282.901 20.3748 282.787 20.2613L279.105 16.5792C279.016 16.601 278.926 16.6156 278.83 16.6156C278.204 16.6156 277.697 16.1075 277.697 15.4814C277.697 14.8553 278.205 14.3487 278.83 14.3487C278.926 14.3487 279.016 14.3632 279.105 14.3865L281.043 12.4487C281.27 12.2215 281.637 12.2215 281.864 12.4487C282.091 12.6758 282.091 13.0427 281.864 13.2698L279.926 15.2077C279.948 15.2965 279.964 15.3868 279.964 15.4829C279.964 15.5789 279.948 15.6707 279.926 15.758Z" fill="white"/>
<path d="M286.745 16.0652H288.549C288.416 18.3132 287.517 20.3574 286.109 21.9429L284.836 20.6704C284.609 20.4433 284.242 20.4433 284.015 20.6704C283.788 20.8975 283.788 21.2659 284.015 21.4916L285.287 22.7641C283.702 24.172 281.658 25.0703 279.411 25.2028V23.3988C279.411 23.0785 279.151 22.8179 278.83 22.8179C278.51 22.8179 278.249 23.0785 278.249 23.3988V25.2028C276.001 25.0703 273.957 24.1705 272.373 22.7641L273.646 21.4916C273.873 21.2644 273.873 20.8975 273.646 20.6704C273.419 20.4433 273.052 20.4433 272.825 20.6704L271.554 21.9429C270.146 20.3588 269.247 18.3147 269.115 16.0652H270.919C271.239 16.0652 271.5 15.8061 271.5 15.4843C271.5 15.164 271.239 14.9034 270.919 14.9034H269.115C269.247 12.6554 270.147 10.6113 271.554 9.0272L272.826 10.2982C272.94 10.4118 273.088 10.4686 273.237 10.4686C273.385 10.4686 273.534 10.4118 273.647 10.2982C273.874 10.0726 273.874 9.70421 273.647 9.47709L272.375 8.20459C273.959 6.79815 276.003 5.89837 278.252 5.76588V7.5698C278.252 7.8901 278.513 8.15072 278.833 8.15072C279.154 8.15072 279.414 7.8901 279.414 7.5698V5.76588C281.662 5.89983 283.706 6.79815 285.29 8.20459L284.018 9.47709C283.791 9.70421 283.791 10.0726 284.018 10.2982C284.131 10.4118 284.28 10.4686 284.428 10.4686C284.577 10.4686 284.725 10.4118 284.839 10.2982L286.11 9.0272C287.517 10.6113 288.416 12.6554 288.55 14.9034H286.746C286.425 14.9034 286.165 15.164 286.165 15.4843C286.165 15.8046 286.425 16.0652 286.745 16.0652ZM289.73 15.4843C289.73 15.4829 289.73 15.4814 289.73 15.4814C289.728 12.5025 288.524 9.79885 286.58 7.83041C286.567 7.81294 286.554 7.79401 286.538 7.778C286.522 7.76198 286.503 7.74888 286.486 7.73578C284.517 5.79063 281.812 4.58656 278.832 4.58656C275.85 4.58656 273.146 5.79063 271.176 7.73723C271.159 7.75033 271.142 7.76344 271.125 7.77946C271.109 7.79547 271.098 7.8144 271.083 7.83041C269.137 9.80031 267.933 12.504 267.933 15.4858C267.933 18.4676 269.137 21.1713 271.082 23.1411C271.096 23.1586 271.108 23.1775 271.124 23.1936C271.14 23.2096 271.159 23.2227 271.176 23.2358C273.145 25.1809 275.847 26.385 278.827 26.385C278.829 26.385 278.83 26.3865 278.832 26.3865C278.833 26.3865 278.835 26.385 278.835 26.385C281.815 26.3835 284.517 25.1809 286.486 23.2358C286.503 23.2227 286.522 23.2096 286.538 23.1936C286.554 23.1775 286.566 23.1586 286.58 23.1411C288.526 21.1727 289.73 18.469 289.73 15.4901C289.73 15.4872 289.73 15.4858 289.73 15.4843Z" fill="white"/>
<path d="M353.536 2.25559V19.0063H333.706V-6.03457H345.248V1.67467C345.248 1.99497 345.508 2.25559 345.829 2.25559H353.536ZM346.408 -5.21342L352.715 1.09374H346.408V-5.21342ZM354.688 1.5611C354.685 1.54363 354.678 1.52762 354.673 1.5116C354.668 1.49122 354.663 1.47229 354.655 1.45336C354.647 1.43298 354.636 1.41551 354.624 1.39658C354.617 1.38202 354.609 1.36746 354.601 1.3529C354.579 1.32087 354.554 1.2903 354.528 1.26409L346.239 -7.02607C346.211 -7.05374 346.182 -7.07703 346.15 -7.09887C346.137 -7.10761 346.121 -7.11343 346.108 -7.12071C346.089 -7.13236 346.072 -7.14255 346.051 -7.15128C346.032 -7.15856 346.013 -7.16293 345.994 -7.16875C345.977 -7.17312 345.961 -7.1804 345.944 -7.18331C345.907 -7.19059 345.869 -7.19496 345.831 -7.19496C345.83 -7.19496 345.83 -7.19496 345.829 -7.19496H333.127C332.806 -7.19496 332.546 -6.93435 332.546 -6.61404V19.5886C332.546 19.9089 332.806 20.1696 333.127 20.1696H354.12C354.442 20.1696 354.701 19.9089 354.701 19.5886V1.67467C354.698 1.63681 354.695 1.59896 354.688 1.5611Z" fill="white"/>
<path d="M356.489 38.0864L344.288 42.7702L332.677 38.2175L332.372 38.0981L344.573 33.4143L356.489 38.0864ZM351.3 41.323C351.096 44.9366 348.094 47.8136 344.431 47.8136C340.789 47.8136 337.799 44.9672 337.566 41.3827L344.072 43.9349C344.141 43.9612 344.212 43.9743 344.285 43.9743C344.355 43.9743 344.426 43.9612 344.493 43.9349L351.3 41.323ZM358.675 38.0952C358.677 37.8549 358.53 37.6394 358.307 37.5521L344.789 32.251C344.653 32.1971 344.503 32.1971 344.368 32.2495L330.558 37.5506C330.334 37.6365 330.187 37.8506 330.186 38.0908C330.184 38.331 330.331 38.5465 330.554 38.6339L331.869 39.1493V41.224C331.483 41.4322 331.216 41.8355 331.216 42.3043C331.216 42.645 331.355 42.9536 331.577 43.1764V46.2921C331.577 46.7726 331.968 47.1628 332.448 47.1628C332.93 47.1628 333.32 46.7726 333.32 46.2921V43.1764C333.544 42.9536 333.681 42.645 333.681 42.3043C333.681 41.8355 333.415 41.4307 333.029 41.224V39.605L336.388 40.9226C336.388 40.9299 336.385 40.9372 336.385 40.9444C336.391 45.3734 339.999 48.9769 344.428 48.9769C348.862 48.9769 352.47 45.3691 352.47 40.9342V40.8891C352.47 40.8833 352.469 40.8789 352.469 40.8746L358.3 38.6368C358.527 38.5494 358.675 38.3339 358.675 38.0952Z" fill="white"/>
<path d="M211.149 9.93427C212.279 10.5035 213.452 11.7775 213.931 12.7151C212.024 14.5787 210.753 15.5236 210.15 15.5236C209.956 15.5236 209.828 15.3941 209.537 15.0534C209.436 14.9354 209.321 14.8015 209.192 14.6719C209.062 14.5423 208.928 14.4288 208.81 14.3269C208.481 14.0473 208.347 13.9148 208.34 13.7328C208.317 13.1432 209.262 11.8649 211.149 9.93427ZM225.085 -2.0438L213.127 9.91389C212.769 9.59503 212.389 9.30967 212 9.07672C219.787 1.32672 223.418 -1.35659 225.085 -2.0438ZM213.946 10.7394L225.895 -1.20954C225.552 -0.408769 224.696 1.00641 222.64 3.45822C220.222 6.34245 217.08 9.56155 214.784 11.8663C214.566 11.5038 214.278 11.118 213.946 10.7394ZM210.764 8.67051C207.74 11.6945 207.145 12.9 207.18 13.7809C207.181 13.8275 207.19 13.8697 207.196 13.9148C204.16 12.4356 204.488 19.1533 202.639 21.2237C204.826 22.1293 210.957 19.9337 209.779 16.6389C209.894 16.6666 210.015 16.6869 210.15 16.6869C211.025 16.6869 212.219 16.0769 215.195 13.101C217.53 10.7656 220.936 7.30192 223.532 4.20513C226.914 0.1707 227.917 -1.98992 226.886 -3.02073C226.711 -3.19545 226.395 -3.40511 225.884 -3.40511C223.779 -3.40511 219.116 0.319206 210.764 8.67051Z" fill="white"/>
<path d="M239.386 19.8609C239.386 18.4384 240.537 17.2853 241.96 17.2853C243.382 17.2853 244.535 18.4384 244.535 19.8609C244.535 21.2834 243.382 22.435 241.96 22.435C240.539 22.435 239.386 21.2819 239.386 19.8609Z" fill="white"/>
<path d="M242.603 5.88819C242.134 5.88819 241.756 5.50819 241.756 5.04083C241.756 4.57202 242.134 4.19202 242.603 4.19202C243.072 4.19202 243.451 4.57202 243.451 5.04083C243.451 5.50819 243.072 5.88819 242.603 5.88819Z" fill="white"/>
<path d="M238.686 9.0112C239.377 9.0112 239.939 9.57174 239.939 10.2648C239.939 10.9593 239.377 11.5198 238.686 11.5198C237.993 11.5198 237.431 10.9578 237.431 10.2648C237.431 9.57174 237.993 9.0112 238.686 9.0112Z" fill="white"/>
<path d="M245.795 14.6748C244.961 14.6748 244.285 13.9978 244.285 13.1621C244.285 12.3264 244.962 11.6508 245.795 11.6508C246.631 11.6508 247.308 12.3264 247.308 13.1621C247.308 13.9978 246.631 14.6748 245.795 14.6748Z" fill="white"/>
<path d="M253.15 2.19152H250.254V9.3475C254.273 13.5508 254.218 20.2394 250.084 24.3729C247.989 26.468 245.237 27.5163 242.486 27.5163C239.734 27.5163 236.981 26.468 234.885 24.3729C232.856 22.3433 231.738 19.644 231.738 16.7743C231.738 13.9847 232.793 11.3582 234.715 9.34895V2.19297H231.588C231.266 2.19297 231.007 1.93236 231.007 1.61205C231.007 1.29174 231.266 1.03113 231.588 1.03113H235.296C235.618 1.03113 235.877 1.29174 235.877 1.61205V9.58627C235.877 9.7406 235.816 9.88765 235.707 9.99685C233.897 11.8066 232.9 14.2147 232.9 16.7743C232.9 19.3353 233.897 21.742 235.707 23.5517C239.444 27.2891 245.524 27.2891 249.263 23.5517C253 19.8143 253 13.7328 249.263 9.99685C249.154 9.88765 249.093 9.73915 249.093 9.58627V1.61205C249.093 1.29174 249.353 1.03113 249.674 1.03113H253.149C253.469 1.03113 253.73 1.29174 253.73 1.61205C253.731 1.9309 253.471 2.19152 253.15 2.19152Z" fill="white"/>
<path d="M232.675 53.2778L220.173 46.4567V27.9065L232.675 34.7276V53.2778ZM230.489 28.9897V32.2132L222.633 27.9269L230.489 28.9897ZM219.011 27.9065V46.4552L206.509 53.2763V34.7276L219.011 27.9065ZM233.837 34.384C233.837 34.1714 233.72 33.9763 233.534 33.8744L231.653 32.848V28.483C231.653 28.1919 231.437 27.9458 231.149 27.9079L219.669 26.3544C219.666 26.3544 219.662 26.3544 219.659 26.3544C219.64 26.3515 219.621 26.353 219.603 26.3515C219.592 26.3515 219.581 26.3501 219.57 26.3501C219.56 26.3501 219.551 26.3501 219.542 26.3515C219.526 26.353 219.51 26.3574 219.493 26.3603C219.471 26.3632 219.449 26.3676 219.429 26.3734C219.417 26.3777 219.405 26.3821 219.392 26.3865C219.369 26.3952 219.344 26.404 219.321 26.4171C219.318 26.4185 219.315 26.42 219.314 26.42L205.65 33.8759C205.463 33.9778 205.347 34.1729 205.347 34.3854V54.2577C205.347 54.4629 205.454 54.6522 205.631 54.757C205.722 54.8109 205.824 54.8386 205.928 54.8386C206.024 54.8386 206.12 54.8153 206.206 54.7672L219.592 47.4642L232.978 54.7672C233.065 54.8138 233.16 54.8386 233.256 54.8386C233.359 54.8386 233.461 54.8109 233.553 54.757C233.729 54.6522 233.837 54.4629 233.837 54.2577V34.384" fill="white"/>
<path d="M215.071 44.0864C215.352 43.9335 215.706 44.0369 215.858 44.3179C216.013 44.5989 215.908 44.9527 215.627 45.1055L209.726 48.3246C209.637 48.3727 209.543 48.396 209.448 48.396C209.243 48.396 209.043 48.2868 208.937 48.0931C208.784 47.8121 208.887 47.4583 209.168 47.3055L215.071 44.0864Z" fill="white"/>
<path d="M210.425 42.2504C210.22 42.2504 210.021 42.1412 209.914 41.9476C209.762 41.6666 209.865 41.3128 210.146 41.1599L214.094 39.0051C214.377 38.8522 214.729 38.9556 214.882 39.2366C215.035 39.5176 214.932 39.8714 214.651 40.0243L210.701 42.1791C210.615 42.2271 210.52 42.2504 210.425 42.2504Z" fill="white"/>
<path d="M208.685 37.5856C208.48 37.5856 208.28 37.4764 208.174 37.2828C208.021 37.0003 208.125 36.648 208.406 36.4951L215.835 32.4418C216.118 32.2874 216.47 32.3923 216.623 32.6733C216.776 32.9543 216.673 33.308 216.392 33.4609L208.962 37.5143C208.874 37.5638 208.78 37.5856 208.685 37.5856Z" fill="white"/>
<path d="M230.012 47.3055C230.293 47.4584 230.398 47.8122 230.244 48.0932C230.139 48.2868 229.94 48.396 229.733 48.396C229.638 48.396 229.544 48.3727 229.455 48.3247L223.554 45.1056C223.273 44.9512 223.168 44.5989 223.322 44.3179C223.477 44.0369 223.829 43.9321 224.11 44.0864L230.012 47.3055Z" fill="white"/>
<path d="M228.479 42.1791L224.531 40.0243C224.248 39.8714 224.145 39.5177 224.299 39.2367C224.453 38.9557 224.806 38.8508 225.088 39.0052L229.037 41.16C229.318 41.3128 229.423 41.6666 229.268 41.9476C229.162 42.1413 228.964 42.2505 228.757 42.2505C228.664 42.2505 228.568 42.2272 228.479 42.1791Z" fill="white"/>
<path d="M222.79 33.4624C222.508 33.3095 222.405 32.9557 222.559 32.6747C222.713 32.3937 223.066 32.2889 223.347 32.4432L230.776 36.4965C231.059 36.6494 231.162 37.0032 231.008 37.2842C230.901 37.4779 230.702 37.5871 230.497 37.5871C230.402 37.5871 230.307 37.5638 230.219 37.5157L222.79 33.4624Z" fill="white"/>
<path d="M192.023 2.25559V19.0063H172.192V-6.03457H183.733V1.67467C183.733 1.99497 183.994 2.25559 184.314 2.25559H192.023ZM184.895 -5.21342L191.202 1.09374H184.895V-5.21342ZM193.173 1.5611C193.17 1.54363 193.163 1.52762 193.159 1.5116C193.153 1.49122 193.149 1.47229 193.14 1.45336C193.132 1.43298 193.121 1.41551 193.109 1.39658C193.102 1.38202 193.095 1.36746 193.086 1.3529C193.064 1.32087 193.039 1.2903 193.013 1.26409L184.724 -7.02607C184.697 -7.05374 184.668 -7.07703 184.636 -7.09887C184.622 -7.10761 184.606 -7.11343 184.593 -7.12071C184.574 -7.13236 184.556 -7.14255 184.537 -7.15128C184.518 -7.15856 184.499 -7.16293 184.48 -7.16875C184.462 -7.17312 184.446 -7.1804 184.429 -7.18331C184.392 -7.19059 184.355 -7.19496 184.317 -7.19496C184.315 -7.19496 184.315 -7.19496 184.314 -7.19496H171.612C171.292 -7.19496 171.031 -6.93435 171.031 -6.61404V19.5886C171.031 19.9089 171.292 20.1696 171.612 20.1696H192.604C192.926 20.1696 193.185 19.9089 193.185 19.5886V1.67467C193.185 1.63681 193.181 1.59896 193.173 1.5611Z" fill="white"/>
<path d="M175.941 6.50258C175.941 6.18227 176.202 5.92166 176.522 5.92166H186.931C187.253 5.92166 187.512 6.18227 187.512 6.50258C187.512 6.82289 187.253 7.0835 186.931 7.0835H176.522C176.202 7.0835 175.941 6.82289 175.941 6.50258Z" fill="white"/>
<path d="M185.768 11.926H177.683C177.363 11.926 177.103 11.6654 177.103 11.345C177.103 11.0247 177.363 10.7641 177.683 10.7641H185.768C186.09 10.7641 186.349 11.0247 186.349 11.345C186.349 11.6654 186.09 11.926 185.768 11.926Z" fill="white"/>
<path d="M186.931 15.6066C187.253 15.6066 187.512 15.8672 187.512 16.1876C187.512 16.5093 187.253 16.7685 186.931 16.7685H176.522C176.202 16.7685 175.941 16.5079 175.941 16.1876C175.941 15.8672 176.202 15.6066 176.522 15.6066H186.931Z" fill="white"/>
<path d="M182.775 42.7702L171.164 38.2175L170.86 38.0981L183.061 33.4143L194.976 38.0864L182.775 42.7702ZM182.918 47.8136C179.277 47.8136 176.286 44.9672 176.053 41.3827L182.561 43.9349C182.63 43.9612 182.701 43.9743 182.774 43.9743C182.844 43.9743 182.915 43.9612 182.982 43.9349L189.788 41.3215C189.583 44.9366 186.581 47.8136 182.918 47.8136ZM197.163 38.0952C197.164 37.8549 197.017 37.6394 196.794 37.5521L183.276 32.251C183.141 32.1971 182.991 32.1971 182.855 32.2495L169.046 37.5506C168.821 37.6365 168.674 37.8506 168.673 38.0908C168.671 38.331 168.818 38.5465 169.041 38.6339L170.356 39.1493V41.224C169.97 41.4322 169.704 41.8355 169.704 42.3043C169.704 42.645 169.842 42.9536 170.065 43.1764V46.2921C170.065 46.7726 170.455 47.1628 170.935 47.1628C171.417 47.1628 171.806 46.7726 171.806 46.2921V43.1764C172.03 42.9536 172.167 42.645 172.167 42.3043C172.167 41.8355 171.901 41.4307 171.515 41.224V39.605L174.874 40.9226C174.874 40.9299 174.871 40.9372 174.871 40.9444C174.877 45.3734 178.484 48.9769 182.913 48.9769C187.348 48.9769 190.956 45.3691 190.956 40.9342V40.8891C190.956 40.8833 190.955 40.8789 190.955 40.8746L196.786 38.6368C197.013 38.5494 197.161 38.3339 197.163 38.0952Z" fill="white"/>
<path d="M116.326 47.8705L101.991 62.2057L86.6889 46.9037C86.1211 46.3374 85.3961 46.0229 84.6535 45.9617L99.5348 31.0805L116.326 47.8705ZM101.17 63.0269L100.091 64.1057L86.2784 50.2932C86.0512 50.066 85.6843 50.066 85.4572 50.2932C85.2301 50.5203 85.2301 50.8872 85.4572 51.1143L99.2698 64.9269L98.1909 66.0057L82.8889 50.7037C82.0678 49.8826 82.0678 48.5475 82.8889 47.7263C83.7101 46.9052 85.0452 46.9052 85.8663 47.7263L101.17 63.0269ZM97.7818 67.236C98.0075 67.4631 98.3758 67.4631 98.603 67.236L102.403 63.436L117.559 48.2796C117.787 48.0525 117.787 47.6841 117.559 47.4584L99.9453 29.8473C99.7182 29.6202 99.3513 29.6202 99.1242 29.8473L82.0678 46.9037C80.7938 48.1777 80.7938 50.2509 82.0678 51.5249L97.7818 67.236Z" fill="white"/>
<path d="M96.0783 40.0651L99.6731 36.4704L110.935 47.7321L107.34 51.3269L96.0783 40.0651ZM94.8452 39.6546C94.618 39.8817 94.618 40.2486 94.8452 40.4757L106.93 52.5601C107.157 52.7872 107.524 52.7872 107.751 52.5601L112.167 48.1442C112.394 47.917 112.394 47.5487 112.167 47.323L100.084 35.2387C99.8565 35.0115 99.4882 35.0115 99.2625 35.2387L94.8452 39.6546Z" fill="white"/>
<path d="M140.7 43.4444C141.071 43.8156 141.083 44.4082 140.745 44.7999L133.924 45.5409L134.9 38.9222C135.291 38.599 135.871 38.6165 136.236 38.9819C136.424 39.1697 136.529 39.4201 136.529 39.6866C136.529 39.953 136.426 40.2034 136.236 40.3913C136.009 40.6184 136.009 40.9867 136.236 41.2124C136.3 41.2765 136.376 41.3201 136.455 41.3478C136.659 41.4192 136.894 41.3755 137.057 41.2124C137.435 40.8353 138.091 40.8353 138.468 41.2124C138.857 41.6011 138.857 42.233 138.468 42.6218C138.241 42.8489 138.241 43.2158 138.468 43.4429C138.695 43.67 139.064 43.67 139.289 43.4429C139.477 43.2551 139.728 43.1517 139.994 43.1517C140.262 43.1532 140.511 43.2566 140.7 43.4444ZM136.18 37.6279L150.707 23.1004L156.603 28.9956L142.066 43.5346C141.967 43.1998 141.786 42.8853 141.523 42.6218C141.083 42.1806 140.498 41.9739 139.918 41.9942C139.939 41.4162 139.732 40.8309 139.291 40.3898C138.883 39.9821 138.342 39.7565 137.764 39.7565C137.737 39.7565 137.713 39.7594 137.686 39.7608C137.688 39.7346 137.691 39.7099 137.691 39.6851C137.691 39.1086 137.465 38.567 137.059 38.1578C136.803 37.906 136.5 37.7283 136.18 37.6279ZM154.066 21.4683C155.18 21.4683 156.226 21.9022 157.014 22.6898C157.802 23.4775 158.236 24.5243 158.236 25.6381C158.236 26.5554 157.937 27.4246 157.394 28.1438L151.562 22.3113C152.278 21.7668 153.149 21.4683 154.066 21.4683ZM141.136 45.9253C141.267 45.9107 141.39 45.8525 141.484 45.7579L157.835 29.4061C158.843 28.4001 159.396 27.0606 159.396 25.6367C159.396 24.2128 158.841 22.8748 157.835 21.8672C156.829 20.8597 155.49 20.305 154.066 20.305C152.642 20.305 151.302 20.8597 150.296 21.8672L134.012 38.152C134.009 38.1549 134.007 38.1564 134.004 38.1593C134.003 38.1607 134.003 38.1622 134.001 38.1637L133.943 38.2219C133.856 38.3107 133.798 38.4243 133.779 38.548L132.663 46.116C132.637 46.2937 132.695 46.4742 132.819 46.6038C132.928 46.7188 133.081 46.7814 133.237 46.7814C133.259 46.7814 133.279 46.7799 133.3 46.7785L141.136 45.9253Z" fill="white"/>
<path d="M142.837 40.0156C142.61 39.7885 142.61 39.4201 142.837 39.1944L152.969 29.0625C153.196 28.8354 153.563 28.8354 153.79 29.0625C154.018 29.2896 154.018 29.658 153.79 29.8837L143.658 40.0156C143.545 40.1292 143.396 40.1859 143.248 40.1859C143.099 40.1859 142.951 40.1292 142.837 40.0156Z" fill="white"/>
<path d="M140.069 40.1918C139.921 40.1918 139.772 40.135 139.659 40.0215C139.431 39.7943 139.431 39.4274 139.659 39.2003L149.792 29.0669C150.019 28.8398 150.386 28.8398 150.613 29.0669C150.84 29.294 150.84 29.6624 150.613 29.8881L140.481 40.02C140.368 40.135 140.219 40.1918 140.069 40.1918Z" fill="white"/>
<path d="M140.075 37.0134C139.927 37.0134 139.778 36.9566 139.664 36.8431C139.437 36.6159 139.437 36.249 139.664 36.0219L149.796 25.8885C150.024 25.6614 150.39 25.6614 150.618 25.8885C150.845 26.1156 150.845 26.484 150.618 26.7097L140.486 36.8416C140.374 36.9566 140.224 37.0134 140.075 37.0134Z" fill="white"/>
<path d="M157.998 -5.34732C157.919 -5.12165 157.986 -4.87122 158.167 -4.71544L159.661 -3.42547L158.64 -1.65795L156.774 -2.3073C156.548 -2.38592 156.297 -2.31895 156.143 -2.13841C155.82 -1.76278 155.465 -1.40753 155.089 -1.08431C154.909 -0.928521 154.842 -0.678097 154.92 -0.453881L155.57 1.41264L153.803 2.43326L152.515 0.939458C152.359 0.758921 152.107 0.69049 151.883 0.770567C151.416 0.935089 150.931 1.06467 150.442 1.15639C150.207 1.20007 150.022 1.38352 149.977 1.61793L149.607 3.55725H147.566L147.196 1.61793C147.151 1.38352 146.968 1.20007 146.733 1.15639C146.243 1.06467 145.758 0.935089 145.291 0.770567C145.228 0.748728 145.164 0.738537 145.1 0.738537C144.934 0.738537 144.772 0.809879 144.66 0.939458L143.372 2.43326L141.604 1.41264L142.255 -0.453881C142.333 -0.679553 142.267 -0.929978 142.086 -1.08576C141.71 -1.40898 141.355 -1.76423 141.03 -2.13987C140.875 -2.32041 140.624 -2.38738 140.4 -2.30876L138.533 -1.65941L137.513 -3.42693L139.007 -4.71689C139.187 -4.87268 139.254 -5.1231 139.176 -5.34878C139.012 -5.81613 138.883 -6.30096 138.791 -6.79016C138.747 -7.02457 138.564 -7.20802 138.33 -7.25315L136.39 -7.62296V-9.66274L138.33 -10.0326C138.564 -10.0777 138.747 -10.2611 138.791 -10.4955C138.883 -10.9847 139.012 -11.4696 139.177 -11.9384C139.256 -12.1641 139.189 -12.4145 139.008 -12.5703L137.514 -13.8588L138.535 -15.6263L140.401 -14.9769C140.626 -14.8983 140.878 -14.9653 141.032 -15.1458C141.355 -15.5215 141.71 -15.8767 142.087 -16.1999C142.268 -16.3557 142.335 -16.6061 142.256 -16.8304L141.607 -18.6969L143.374 -19.7175L144.663 -18.2237C144.819 -18.0432 145.069 -17.9762 145.295 -18.0548C145.762 -18.2179 146.247 -18.3475 146.736 -18.4392C146.971 -18.4829 147.154 -18.6663 147.199 -18.9007L147.569 -20.84H149.61L149.98 -18.9007C150.025 -18.6663 150.209 -18.4829 150.445 -18.4392C150.934 -18.3475 151.419 -18.2179 151.886 -18.0548C152.112 -17.9762 152.362 -18.0432 152.518 -18.2237L153.806 -19.7175L155.574 -18.6983L154.925 -16.8318C154.846 -16.6062 154.913 -16.3557 155.093 -16.2014C155.469 -15.8782 155.824 -15.5229 156.148 -15.1473C156.303 -14.9668 156.554 -14.8998 156.779 -14.9784L158.646 -15.6278L159.667 -13.8602L158.173 -12.5717C157.992 -12.4159 157.925 -12.1655 158.004 -11.9398C158.168 -11.4725 158.296 -10.9877 158.39 -10.4985C158.433 -10.264 158.617 -10.0791 158.851 -10.0355L160.791 -9.66565V-7.62587L158.851 -7.25606C158.617 -7.21093 158.433 -7.02748 158.39 -6.79307C158.291 -6.29951 158.161 -5.81322 157.998 -5.34732ZM159.444 -6.18303L161.475 -6.57031C161.749 -6.62273 161.947 -6.86296 161.947 -7.14104V-10.1417C161.947 -10.4198 161.749 -10.6601 161.475 -10.7125L159.444 -11.0998C159.38 -11.3837 159.304 -11.6647 159.218 -11.9428L160.783 -13.2924C160.994 -13.4744 161.045 -13.7816 160.907 -14.0233L159.406 -16.6222C159.266 -16.8639 158.976 -16.9716 158.711 -16.8799L156.758 -16.1999C156.561 -16.4125 156.356 -16.6178 156.143 -16.8143L156.823 -18.7682C156.915 -19.0303 156.807 -19.3244 156.565 -19.4613L153.965 -20.9623C153.723 -21.1021 153.418 -21.0497 153.236 -20.84L151.886 -19.2749C151.609 -19.3608 151.327 -19.4365 151.043 -19.5006L150.656 -21.5316C150.603 -21.8053 150.363 -22.0033 150.085 -22.0033H147.083C146.805 -22.0033 146.564 -21.8053 146.512 -21.5316L146.125 -19.5006C145.841 -19.4365 145.56 -19.3608 145.283 -19.2749L143.934 -20.84C143.752 -21.0497 143.444 -21.1021 143.203 -20.9623L140.604 -19.4613C140.362 -19.3215 140.254 -19.0303 140.346 -18.7668L141.026 -16.8129C140.813 -16.6163 140.608 -16.4111 140.412 -16.1985L138.458 -16.8784C138.194 -16.9701 137.903 -16.8609 137.763 -16.6207L136.262 -14.0218C136.122 -13.7802 136.175 -13.4744 136.386 -13.291L137.95 -11.9413C137.864 -11.6647 137.789 -11.3822 137.725 -11.0983L135.694 -10.711C135.421 -10.6586 135.223 -10.4184 135.223 -10.1403V-7.13959C135.223 -6.8615 135.421 -6.62127 135.694 -6.56886L137.725 -6.18158C137.789 -5.89767 137.864 -5.61667 137.95 -5.34004L136.386 -3.99038C136.175 -3.80838 136.122 -3.50118 136.262 -3.25949L137.763 -0.660629C137.903 -0.418942 138.194 -0.309743 138.458 -0.402923L140.412 -1.08285C140.608 -0.870285 140.813 -0.664994 141.026 -0.468441L140.346 1.48544C140.254 1.74896 140.362 2.04015 140.604 2.17992L143.203 3.68101C143.444 3.82078 143.752 3.76836 143.934 3.55725L145.283 1.99356C145.56 2.07946 145.842 2.15517 146.125 2.21923L146.512 4.25028C146.564 4.524 146.805 4.72201 147.083 4.72201H150.085C150.363 4.72201 150.603 4.524 150.656 4.25028L151.043 2.22069C151.327 2.15663 151.609 2.08092 151.886 1.99502L153.236 3.5587C153.418 3.76982 153.725 3.82223 153.965 3.68246L156.564 2.18138C156.804 2.04161 156.913 1.75042 156.822 1.48689L156.142 -0.466987C156.354 -0.66354 156.56 -0.868828 156.756 -1.0814L158.711 -0.40147C158.975 -0.309745 159.266 -0.41894 159.406 -0.659171L160.907 -3.25804C161.047 -3.49972 160.994 -3.80693 160.783 -3.98747L159.22 -5.33713C159.305 -5.61812 159.38 -5.89912 159.444 -6.18303Z" fill="white"/>
<path d="M117.317 27.6838C110.591 27.6838 105.118 22.2109 105.118 15.483C105.118 8.75649 110.591 3.28359 117.317 3.28359C124.044 3.28359 129.517 8.75649 129.517 15.483C129.517 22.2109 124.044 27.6838 117.317 27.6838ZM130.678 15.4844C130.678 8.11733 124.684 2.1232 117.317 2.1232C109.95 2.1232 103.956 8.11733 103.956 15.4844C103.956 22.853 109.95 28.8456 117.317 28.8456C124.686 28.8456 130.678 22.8515 130.678 15.4844Z" fill="white"/>
<path d="M118.414 15.7581L122.096 19.4402C122.323 19.6673 122.323 20.0356 122.096 20.2613C121.982 20.3749 121.834 20.4317 121.685 20.4317C121.537 20.4317 121.388 20.3749 121.275 20.2613L117.592 16.5792C117.504 16.6011 117.413 16.6156 117.317 16.6156C116.691 16.6156 116.185 16.1075 116.185 15.4814C116.185 14.8554 116.693 14.3487 117.317 14.3487C117.413 14.3487 117.504 14.3633 117.592 14.3866L119.53 12.4487C119.757 12.2216 120.124 12.2216 120.351 12.4487C120.579 12.6758 120.579 13.0427 120.351 13.2699L118.414 15.2077C118.435 15.2965 118.451 15.3868 118.451 15.4829C118.451 15.579 118.435 15.6707 118.414 15.7581Z" fill="white"/>
<path d="M125.232 16.0653H127.036C126.904 18.3133 126.004 20.3574 124.596 21.9429L123.323 20.6705C123.096 20.4433 122.729 20.4433 122.502 20.6705C122.275 20.8976 122.275 21.2659 122.502 21.4916L123.775 22.7641C122.189 24.172 120.145 25.0703 117.899 25.2028V23.3989C117.899 23.0786 117.638 22.818 117.318 22.818C116.997 22.818 116.737 23.0786 116.737 23.3989V25.2028C114.489 25.0703 112.445 24.1705 110.861 22.7641L112.133 21.4916C112.36 21.2645 112.36 20.8976 112.133 20.6705C111.906 20.4433 111.539 20.4433 111.312 20.6705L110.041 21.9429C108.633 20.3589 107.735 18.3147 107.602 16.0653H109.403C109.723 16.0653 109.984 15.8061 109.984 15.4844C109.984 15.1641 109.723 14.9034 109.403 14.9034H107.599C107.732 12.6555 108.632 10.6113 110.038 9.02725L111.31 10.2983C111.424 10.4119 111.573 10.4686 111.721 10.4686C111.87 10.4686 112.018 10.4119 112.132 10.2983C112.359 10.0726 112.359 9.70426 112.132 9.47713L110.859 8.20464C112.443 6.79819 114.487 5.89842 116.737 5.76593V7.56984C116.737 7.89015 116.997 8.15077 117.318 8.15077C117.638 8.15077 117.899 7.89015 117.899 7.56984V5.76593C120.147 5.89987 122.191 6.79819 123.775 8.20464L122.502 9.47713C122.275 9.70426 122.275 10.0726 122.502 10.2983C122.616 10.4119 122.764 10.4686 122.913 10.4686C123.061 10.4686 123.21 10.4119 123.323 10.2983L124.594 9.02725C126.001 10.6113 126.901 12.6555 127.035 14.9034H125.231C124.909 14.9034 124.65 15.1641 124.65 15.4844C124.651 15.8047 124.912 16.0653 125.232 16.0653ZM128.217 15.4844C128.217 15.4829 128.217 15.4815 128.217 15.4815C128.215 12.5026 127.011 9.7989 125.068 7.83046C125.055 7.81299 125.041 7.79406 125.025 7.77804C125.009 7.76203 124.991 7.74893 124.973 7.73582C123.005 5.79068 120.299 4.58661 117.319 4.58661C114.337 4.58661 111.634 5.79068 109.664 7.73728C109.646 7.75038 109.629 7.76349 109.613 7.7795C109.597 7.79552 109.585 7.81444 109.571 7.83046C107.624 9.80035 106.42 12.504 106.42 15.4858C106.42 18.4676 107.624 21.1713 109.569 23.1412C109.584 23.1587 109.595 23.1776 109.611 23.1936C109.627 23.2096 109.646 23.2227 109.664 23.2358C111.632 25.181 114.334 26.385 117.315 26.385C117.316 26.385 117.318 26.3865 117.319 26.3865C117.321 26.3865 117.322 26.385 117.322 26.385C120.302 26.3836 123.005 25.181 124.973 23.2358C124.991 23.2227 125.009 23.2096 125.025 23.1936C125.041 23.1776 125.053 23.1587 125.068 23.1412C127.013 21.1728 128.217 18.4691 128.217 15.4902C128.217 15.4873 128.217 15.4858 128.217 15.4844Z" fill="white"/>
<path d="M192.023 2.25563V19.0063H172.192V-6.03453H183.733V1.67471C183.733 1.99502 183.994 2.25563 184.314 2.25563H192.023ZM184.895 -5.21337L191.202 1.09379H184.895V-5.21337ZM193.173 1.56115C193.17 1.54368 193.163 1.52766 193.159 1.51165C193.153 1.49126 193.149 1.47234 193.14 1.45341C193.132 1.43302 193.121 1.41555 193.109 1.39662C193.102 1.38206 193.095 1.3675 193.086 1.35295C193.064 1.32091 193.039 1.29034 193.013 1.26413L184.724 -7.02603C184.697 -7.05369 184.668 -7.07698 184.636 -7.09882C184.622 -7.10756 184.606 -7.11338 184.593 -7.12066C184.574 -7.13231 184.557 -7.1425 184.537 -7.15124C184.518 -7.15852 184.499 -7.16288 184.48 -7.16871C184.462 -7.17308 184.446 -7.18036 184.429 -7.18327C184.392 -7.19055 184.355 -7.19492 184.317 -7.19492C184.315 -7.19492 184.315 -7.19492 184.314 -7.19492H171.612C171.292 -7.19492 171.031 -6.9343 171.031 -6.61399V19.5887C171.031 19.909 171.292 20.1696 171.612 20.1696H192.605C192.927 20.1696 193.186 19.909 193.186 19.5887V1.67471C193.185 1.63686 193.181 1.599 193.173 1.56115Z" fill="white"/>
<path d="M194.976 38.0865L182.775 42.7702L171.164 38.2175L170.86 38.0981L183.06 33.4143L194.976 38.0865ZM189.787 41.323C189.583 44.9367 186.581 47.8136 182.918 47.8136C179.276 47.8136 176.286 44.9673 176.053 41.3827L182.56 43.935C182.628 43.9612 182.699 43.9743 182.772 43.9743C182.842 43.9743 182.913 43.9612 182.98 43.935L189.787 41.323ZM197.163 38.0952C197.164 37.855 197.017 37.6395 196.794 37.5521L183.276 32.251C183.141 32.1972 182.991 32.1972 182.855 32.2496L169.046 37.5507C168.821 37.6366 168.674 37.8506 168.673 38.0908C168.671 38.3311 168.818 38.5465 169.041 38.6339L170.356 39.1493V41.224C169.97 41.4322 169.704 41.8355 169.704 42.3043C169.704 42.645 169.842 42.9537 170.065 43.1764V46.2922C170.065 46.7726 170.455 47.1628 170.935 47.1628C171.417 47.1628 171.808 46.7726 171.808 46.2922V43.1764C172.032 42.9537 172.169 42.645 172.169 42.3043C172.169 41.8355 171.902 41.4308 171.516 41.224V39.605L174.875 40.9226C174.875 40.9299 174.872 40.9372 174.872 40.9445C174.878 45.3735 178.486 48.9769 182.915 48.9769C187.35 48.9769 190.958 45.3691 190.958 40.9343V40.8892C190.958 40.8833 190.956 40.879 190.956 40.8746L196.787 38.6368C197.013 38.5495 197.161 38.334 197.163 38.0952Z" fill="white"/>
<path d="M49.6345 9.93433C50.7643 10.5036 51.9378 11.7776 52.4168 12.7152C50.5095 14.5788 49.2385 15.5237 48.6357 15.5237C48.4421 15.5237 48.314 15.3941 48.0228 15.0534C47.9223 14.9355 47.8073 14.8016 47.6777 14.672C47.5482 14.5424 47.4142 14.4288 47.2963 14.3269C46.9672 14.0474 46.8333 13.9149 46.826 13.7329C46.8027 13.1432 47.7491 11.8649 49.6345 9.93433ZM63.5723 -2.04374L51.6146 9.91395C51.2564 9.59509 50.8764 9.30973 50.4877 9.07678C58.2741 1.32678 61.9052 -1.35653 63.5723 -2.04374ZM52.4329 10.7395L64.3818 -1.20948C64.0396 -0.408708 63.1835 1.00647 61.1278 3.45828C58.7094 6.34251 55.5675 9.56161 53.2715 11.8664C53.0516 11.5038 52.7648 11.118 52.4329 10.7395ZM49.2516 8.67057C46.2276 11.6946 45.6321 12.9001 45.6671 13.7809C45.6685 13.8275 45.6773 13.8698 45.6831 13.9149C42.6474 12.4356 42.975 19.1534 41.126 21.2237C43.3128 22.1293 49.4438 19.9338 48.2659 16.639C48.381 16.6666 48.5018 16.687 48.6372 16.687C49.5122 16.687 50.7061 16.077 53.682 13.101C56.0174 10.7657 59.4228 7.30198 62.0188 4.20519C65.401 0.17076 66.4041 -1.98986 65.3733 -3.02067C65.1986 -3.19539 64.8826 -3.40504 64.3716 -3.40504C62.2649 -3.40504 57.6029 0.319267 49.2516 8.67057Z" fill="white"/>
<path d="M77.873 19.861C77.873 18.4385 79.0247 17.2854 80.4472 17.2854C81.8696 17.2854 83.0227 18.4385 83.0227 19.861C83.0227 21.2834 81.8696 22.4351 80.4472 22.4351C79.0247 22.4351 77.873 21.282 77.873 19.861Z" fill="white"/>
<path d="M81.0905 5.88824C80.6217 5.88824 80.2432 5.50824 80.2432 5.04088C80.2432 4.57207 80.6217 4.19206 81.0905 4.19206C81.5593 4.19206 81.9379 4.57207 81.9379 5.04088C81.9379 5.50824 81.5593 5.88824 81.0905 5.88824Z" fill="white"/>
<path d="M77.172 9.01125C77.8636 9.01125 78.4256 9.57179 78.4256 10.2648C78.4256 10.9593 77.8636 11.5198 77.172 11.5198C76.479 11.5198 75.917 10.9578 75.917 10.2648C75.917 9.57179 76.479 9.01125 77.172 9.01125Z" fill="white"/>
<path d="M84.2823 14.6748C83.448 14.6748 82.7725 13.9978 82.7725 13.1621C82.7725 12.3264 83.4495 11.6508 84.2823 11.6508C85.118 11.6508 85.795 12.3264 85.795 13.1621C85.7936 13.9978 85.1165 14.6748 84.2823 14.6748Z" fill="white"/>
<path d="M91.6376 2.19156H88.7417V9.34754C92.7601 13.5509 92.7048 20.2395 88.5714 24.3729C86.4763 26.468 83.7245 27.5163 80.9728 27.5163C78.2211 27.5163 75.4679 26.468 73.3728 24.3729C71.3432 22.3433 70.225 19.644 70.225 16.7743C70.225 13.9847 71.2806 11.3582 73.2024 9.349V2.19302H70.0751C69.7533 2.19302 69.4941 1.9324 69.4941 1.6121C69.4941 1.29179 69.7533 1.03117 70.0751 1.03117H73.7834C74.1051 1.03117 74.3643 1.29179 74.3643 1.6121V9.58632C74.3643 9.74065 74.3031 9.8877 74.1939 9.99689C72.3842 11.8066 71.3869 14.2148 71.3869 16.7743C71.3869 19.3353 72.3842 21.742 74.1939 23.5518C77.9313 27.2892 84.0114 27.2892 87.7502 23.5518C91.4876 19.8143 91.4876 13.7329 87.7502 9.99689C87.641 9.8877 87.5799 9.73919 87.5799 9.58632V1.6121C87.5799 1.29179 87.8405 1.03117 88.1608 1.03117H91.6362C91.9565 1.03117 92.2171 1.29179 92.2171 1.6121C92.2185 1.93095 91.9579 2.19156 91.6376 2.19156Z" fill="white"/>
<path d="M71.1611 53.2778L58.6589 46.4553V27.9065L71.1611 34.7276V53.2778ZM68.9772 28.9898V32.2132L61.1209 27.9269L68.9772 28.9898ZM57.4971 27.9065V46.4553L44.9949 53.2764V34.7276L57.4971 27.9065ZM72.323 34.384C72.323 34.1715 72.2065 33.9764 72.0201 33.8745L70.139 32.848V28.4831C70.139 28.1919 69.9236 27.9458 69.6353 27.908L58.1551 26.3545C58.1522 26.3545 58.1479 26.3545 58.145 26.3545C58.126 26.3516 58.1071 26.353 58.0896 26.3516C58.078 26.3516 58.0678 26.3501 58.0561 26.3501C58.0459 26.3501 58.0372 26.3501 58.0285 26.3516C58.0125 26.353 57.9964 26.3574 57.979 26.3603C57.9571 26.3632 57.9353 26.3676 57.9149 26.3734C57.9033 26.3778 57.8916 26.3822 57.8785 26.3865C57.8552 26.3953 57.8305 26.404 57.8072 26.4171C57.8043 26.4186 57.8014 26.42 57.7999 26.42L44.1358 33.8759C43.9495 33.9778 43.833 34.1729 43.833 34.3855V54.2577C43.833 54.463 43.9407 54.6523 44.1169 54.7571C44.2086 54.811 44.3106 54.8386 44.4139 54.8386C44.51 54.8386 44.6061 54.8153 44.692 54.7673L58.078 47.4642L71.4639 54.7673C71.5513 54.8139 71.6459 54.8386 71.742 54.8386C71.8454 54.8386 71.9473 54.811 72.039 54.7571C72.2152 54.6523 72.323 54.463 72.323 54.2577V34.384Z" fill="white"/>
<path d="M53.5581 44.0864C53.8391 43.9335 54.1929 44.0369 54.3457 44.3179C54.5001 44.5989 54.3952 44.9527 54.1142 45.1056L48.2133 48.3247C48.1245 48.3727 48.0298 48.396 47.9352 48.396C47.7299 48.396 47.5304 48.2868 47.4242 48.0932C47.2713 47.8122 47.3747 47.4584 47.6557 47.3055L53.5581 44.0864Z" fill="white"/>
<path d="M48.9127 42.2505C48.7075 42.2505 48.508 42.1413 48.4017 41.9476C48.2488 41.6666 48.3522 41.3128 48.6332 41.16L52.5817 39.0052C52.8642 38.8523 53.2165 38.9557 53.3694 39.2367C53.5223 39.5177 53.4189 39.8715 53.1379 40.0243L49.1879 42.1791C49.102 42.2272 49.0059 42.2505 48.9127 42.2505Z" fill="white"/>
<path d="M47.1725 37.5857C46.9672 37.5857 46.7678 37.4765 46.6615 37.2829C46.5086 37.0004 46.612 36.6481 46.893 36.4952L54.3227 32.4418C54.6051 32.2875 54.9575 32.3923 55.1103 32.6733C55.2632 32.9543 55.1598 33.3081 54.8788 33.461L47.4491 37.5158C47.3618 37.5639 47.2657 37.5857 47.1725 37.5857Z" fill="white"/>
<path d="M68.4977 47.3056C68.7787 47.4584 68.8835 47.8122 68.7292 48.0932C68.6243 48.2869 68.4249 48.3961 68.2181 48.3961C68.1235 48.3961 68.0289 48.3728 67.9401 48.3247L62.0391 45.1056C61.7581 44.9513 61.6533 44.599 61.8076 44.318C61.962 44.037 62.3143 43.9321 62.5953 44.0865L68.4977 47.3056Z" fill="white"/>
<path d="M66.9664 42.1792L63.0179 40.0244C62.7355 39.8715 62.6321 39.5177 62.7864 39.2367C62.9408 38.9557 63.2931 38.8509 63.5755 39.0052L67.5241 41.16C67.8051 41.3129 67.9099 41.6667 67.7556 41.9477C67.6493 42.1413 67.4513 42.2505 67.2445 42.2505C67.1499 42.2505 67.0538 42.2272 66.9664 42.1792Z" fill="white"/>
<path d="M61.2777 33.4624C60.9952 33.3096 60.8919 32.9558 61.0462 32.6748C61.2005 32.3938 61.5529 32.2889 61.8339 32.4433L69.2635 36.4966C69.546 36.6495 69.6494 37.0033 69.495 37.2843C69.3888 37.4779 69.1893 37.5871 68.984 37.5871C68.8894 37.5871 68.7947 37.5638 68.7059 37.5158L61.2777 33.4624Z" fill="white"/>
<path d="M30.5104 2.25563V19.0063H10.6789V-6.03453H22.2202V1.67471C22.2202 1.99502 22.4808 2.25563 22.8011 2.25563H30.5104ZM23.3821 -5.21337L29.6892 1.09379H23.3821V-5.21337ZM31.6606 1.56115C31.6577 1.54368 31.6504 1.52766 31.646 1.51165C31.6402 1.49126 31.6358 1.47234 31.6271 1.45341C31.6198 1.43302 31.6082 1.41555 31.5965 1.39662C31.5892 1.38206 31.582 1.3675 31.5732 1.35295C31.5514 1.32091 31.5266 1.29034 31.5004 1.26413L23.2117 -7.02603C23.1841 -7.05369 23.1549 -7.07698 23.1229 -7.09882C23.1098 -7.10756 23.0938 -7.11338 23.0807 -7.12066C23.0618 -7.13231 23.0428 -7.1425 23.0239 -7.15124C23.005 -7.15852 22.9861 -7.16288 22.9671 -7.16871C22.9497 -7.17308 22.9336 -7.18036 22.9162 -7.18327C22.8798 -7.19055 22.8419 -7.19492 22.8041 -7.19492C22.8026 -7.19492 22.8026 -7.19492 22.8011 -7.19492H10.0995C9.77917 -7.19492 9.51855 -6.9343 9.51855 -6.61399V19.5887C9.51855 19.909 9.77917 20.1696 10.0995 20.1696H31.0913C31.4131 20.1696 31.6722 19.909 31.6722 19.5887V1.67471C31.6722 1.63686 31.6679 1.599 31.6606 1.56115Z" fill="white"/>
<path d="M14.4287 6.50263C14.4287 6.18232 14.6893 5.92171 15.0096 5.92171H25.4182C25.74 5.92171 25.9991 6.18232 25.9991 6.50263C25.9991 6.82293 25.74 7.08355 25.4182 7.08355H15.0096C14.6893 7.08355 14.4287 6.82293 14.4287 6.50263Z" fill="white"/>
<path d="M24.2566 11.926H16.1717C15.8514 11.926 15.5908 11.6654 15.5908 11.3451C15.5908 11.0248 15.8514 10.7642 16.1717 10.7642H24.2566C24.5784 10.7642 24.8375 11.0248 24.8375 11.3451C24.8375 11.6654 24.5769 11.926 24.2566 11.926Z" fill="white"/>
<path d="M25.4182 15.6067C25.74 15.6067 25.9991 15.8673 25.9991 16.1876C25.9991 16.5094 25.74 16.7685 25.4182 16.7685H15.0096C14.6893 16.7685 14.4287 16.5079 14.4287 16.1876C14.4287 15.8673 14.6893 15.6067 15.0096 15.6067H25.4182Z" fill="white"/>
<path d="M21.2615 42.7702L9.65031 38.2175L9.34602 38.0981L21.5469 33.4143L33.4623 38.0865L21.2615 42.7702ZM21.4056 47.8136C17.7643 47.8136 14.7738 44.9673 14.5408 41.3827L21.0489 43.935C21.1174 43.9612 21.1887 43.9743 21.2615 43.9743C21.3314 43.9743 21.4027 43.9612 21.4697 43.935L28.2762 41.3216C28.071 44.9367 25.0688 47.8136 21.4056 47.8136ZM35.6492 38.0952C35.6506 37.855 35.5036 37.6395 35.2808 37.5521L21.7623 32.251C21.6269 32.1972 21.477 32.1972 21.3416 32.2496L7.53191 37.5507C7.3077 37.6366 7.16065 37.8506 7.15919 38.0908C7.15773 38.3311 7.30479 38.5465 7.52755 38.6339L8.84226 39.1493V41.224C8.45644 41.4322 8.19 41.8355 8.19 42.3043C8.19 42.645 8.32832 42.9537 8.55108 43.1764V46.2922C8.55108 46.7726 8.94127 47.1628 9.42173 47.1628C9.90365 47.1628 10.2924 46.7726 10.2924 46.2922V43.1764C10.5166 42.9537 10.6535 42.645 10.6535 42.3043C10.6535 41.8355 10.387 41.4308 10.0012 41.224V39.605L13.3601 40.9226C13.3601 40.9299 13.3572 40.9372 13.3572 40.9445C13.363 45.3735 16.9708 48.9769 21.3998 48.9769C25.8346 48.9769 29.4425 45.3691 29.4425 40.9343V40.8892C29.4425 40.8833 29.441 40.879 29.441 40.8746L35.2721 38.6368C35.5006 38.5495 35.6492 38.334 35.6492 38.0952Z" fill="white"/>
</g>
</g>
</g>
<path d="M155.52 30.108C155.172 30.108 154.89 30.006 154.674 29.802C154.47 29.586 154.368 29.298 154.368 28.938V18.408C154.368 18.06 154.464 17.79 154.656 17.598C154.86 17.406 155.136 17.31 155.484 17.31H159.912C161.268 17.31 162.324 17.652 163.08 18.336C163.836 19.008 164.214 19.956 164.214 21.18C164.214 22.404 163.836 23.358 163.08 24.042C162.324 24.726 161.268 25.068 159.912 25.068H156.69V28.938C156.69 29.298 156.582 29.586 156.366 29.802C156.162 30.006 155.88 30.108 155.52 30.108ZM159.624 23.286C161.22 23.286 162.018 22.59 162.018 21.198C162.018 19.806 161.22 19.11 159.624 19.11H156.69V23.286H159.624ZM170.791 21.018C171.103 20.994 171.349 21.06 171.529 21.216C171.709 21.372 171.799 21.606 171.799 21.918C171.799 22.242 171.721 22.482 171.565 22.638C171.409 22.794 171.127 22.896 170.719 22.944L170.179 22.998C169.471 23.07 168.949 23.31 168.613 23.718C168.289 24.126 168.127 24.636 168.127 25.248V29.028C168.127 29.376 168.019 29.646 167.803 29.838C167.587 30.018 167.317 30.108 166.993 30.108C166.669 30.108 166.399 30.018 166.183 29.838C165.979 29.646 165.877 29.376 165.877 29.028V22.062C165.877 21.726 165.979 21.468 166.183 21.288C166.399 21.108 166.663 21.018 166.975 21.018C167.287 21.018 167.539 21.108 167.731 21.288C167.923 21.456 168.019 21.702 168.019 22.026V22.746C168.247 22.218 168.583 21.81 169.027 21.522C169.483 21.234 169.987 21.072 170.539 21.036L170.791 21.018ZM176.606 30.144C175.706 30.144 174.914 29.958 174.23 29.586C173.558 29.214 173.036 28.68 172.664 27.984C172.292 27.288 172.106 26.478 172.106 25.554C172.106 24.63 172.292 23.826 172.664 23.142C173.036 22.446 173.558 21.912 174.23 21.54C174.914 21.168 175.706 20.982 176.606 20.982C177.506 20.982 178.292 21.168 178.964 21.54C179.648 21.912 180.17 22.446 180.53 23.142C180.902 23.826 181.088 24.63 181.088 25.554C181.088 26.478 180.902 27.288 180.53 27.984C180.17 28.68 179.648 29.214 178.964 29.586C178.292 29.958 177.506 30.144 176.606 30.144ZM176.588 28.398C177.32 28.398 177.878 28.158 178.262 27.678C178.646 27.198 178.838 26.49 178.838 25.554C178.838 24.63 178.646 23.928 178.262 23.448C177.878 22.956 177.326 22.71 176.606 22.71C175.886 22.71 175.328 22.956 174.932 23.448C174.548 23.928 174.356 24.63 174.356 25.554C174.356 26.49 174.548 27.198 174.932 27.678C175.316 28.158 175.868 28.398 176.588 28.398ZM190.453 19.416C190.045 19.416 189.721 19.308 189.481 19.092C189.241 18.864 189.121 18.57 189.121 18.21C189.121 17.85 189.241 17.562 189.481 17.346C189.721 17.13 190.045 17.022 190.453 17.022C190.849 17.022 191.167 17.13 191.407 17.346C191.659 17.562 191.785 17.85 191.785 18.21C191.785 18.57 191.659 18.864 191.407 19.092C191.167 19.308 190.849 19.416 190.453 19.416ZM190.561 21.198C191.233 21.198 191.569 21.48 191.569 22.044V29.028C191.569 29.376 191.461 29.646 191.245 29.838C191.041 30.018 190.777 30.108 190.453 30.108C190.129 30.108 189.859 30.018 189.643 29.838C189.427 29.646 189.319 29.376 189.319 29.028V22.89H185.755V29.028C185.755 29.376 185.647 29.64 185.431 29.82C185.227 30 184.963 30.09 184.639 30.09C184.315 30.09 184.045 30 183.829 29.82C183.613 29.64 183.505 29.376 183.505 29.028V22.89H182.605C181.933 22.89 181.597 22.608 181.597 22.044C181.597 21.48 181.933 21.198 182.605 21.198H183.505V21.108C183.505 19.992 183.799 19.11 184.387 18.462C184.987 17.802 185.827 17.424 186.907 17.328L187.321 17.292C187.381 17.28 187.471 17.274 187.591 17.274C188.227 17.274 188.545 17.544 188.545 18.084C188.545 18.348 188.473 18.552 188.329 18.696C188.185 18.84 187.987 18.924 187.735 18.948L187.339 18.984C186.787 19.032 186.385 19.206 186.133 19.506C185.881 19.794 185.755 20.22 185.755 20.784V21.198H190.561ZM195.03 30.108C194.706 30.108 194.436 30.018 194.22 29.838C194.016 29.646 193.914 29.376 193.914 29.028V18.282C193.914 17.934 194.016 17.67 194.22 17.49C194.436 17.31 194.706 17.22 195.03 17.22C195.354 17.22 195.624 17.31 195.84 17.49C196.056 17.67 196.164 17.934 196.164 18.282V29.028C196.164 29.376 196.056 29.646 195.84 29.838C195.624 30.018 195.354 30.108 195.03 30.108ZM205.45 27.588C205.654 27.588 205.816 27.666 205.936 27.822C206.068 27.978 206.134 28.188 206.134 28.452C206.134 28.824 205.912 29.136 205.468 29.388C205.06 29.616 204.598 29.802 204.082 29.946C203.566 30.078 203.074 30.144 202.606 30.144C201.19 30.144 200.068 29.736 199.24 28.92C198.412 28.104 197.998 26.988 197.998 25.572C197.998 24.672 198.178 23.874 198.538 23.178C198.898 22.482 199.402 21.942 200.05 21.558C200.71 21.174 201.454 20.982 202.282 20.982C203.074 20.982 203.764 21.156 204.352 21.504C204.94 21.852 205.396 22.344 205.72 22.98C206.044 23.616 206.206 24.366 206.206 25.23C206.206 25.746 205.978 26.004 205.522 26.004H200.212C200.284 26.832 200.518 27.444 200.914 27.84C201.31 28.224 201.886 28.416 202.642 28.416C203.026 28.416 203.362 28.368 203.65 28.272C203.95 28.176 204.286 28.044 204.658 27.876C205.018 27.684 205.282 27.588 205.45 27.588ZM202.336 22.566C201.724 22.566 201.232 22.758 200.86 23.142C200.5 23.526 200.284 24.078 200.212 24.798H204.28C204.256 24.066 204.076 23.514 203.74 23.142C203.404 22.758 202.936 22.566 202.336 22.566Z" fill="white"/>
<defs>
<clipPath id="clip0">
<rect x="-7.69922" y="-35.7475" width="367.699" height="417.1" fill="white"/>
</clipPath>
</defs>
</svg>
