<svg width="25" height="24" viewBox="0 0 25 24" fill="none" xmlns="http://www.w3.org/2000/svg">
<path d="M20.9971 4H4.99707C3.89707 4 3.00707 4.9 3.00707 6L2.99707 18C2.99707 19.1 3.89707 20 4.99707 20H20.9971C22.0971 20 22.9971 19.1 22.9971 18V6C22.9971 4.9 22.0971 4 20.9971 4ZM20.5971 8.25L13.5271 12.67C13.2071 12.87 12.7871 12.87 12.4671 12.67L5.39707 8.25C5.2968 8.19371 5.20899 8.11766 5.13896 8.02645C5.06893 7.93525 5.01813 7.83078 4.98965 7.71937C4.96116 7.60796 4.95557 7.49194 4.97323 7.37831C4.99088 7.26468 5.03141 7.15581 5.09235 7.0583C5.1533 6.96079 5.23339 6.87666 5.3278 6.811C5.4222 6.74533 5.52894 6.69951 5.64157 6.6763C5.75419 6.65309 5.87035 6.65297 5.98303 6.67595C6.0957 6.69893 6.20253 6.74453 6.29707 6.81L12.9971 11L19.6971 6.81C19.7916 6.74453 19.8984 6.69893 20.0111 6.67595C20.1238 6.65297 20.24 6.65309 20.3526 6.6763C20.4652 6.69951 20.5719 6.74533 20.6663 6.811C20.7607 6.87666 20.8408 6.96079 20.9018 7.0583C20.9627 7.15581 21.0033 7.26468 21.0209 7.37831C21.0386 7.49194 21.033 7.60796 21.0045 7.71937C20.976 7.83078 20.9252 7.93525 20.8552 8.02645C20.7852 8.11766 20.6973 8.19371 20.5971 8.25Z" fill="#FF3E71"/>
</svg>
