<svg width="24" height="25" viewBox="0 0 24 25" fill="none" xmlns="http://www.w3.org/2000/svg">
<path d="M19.0004 11.5H7.83041L12.7104 6.62001C13.1004 6.23001 13.1004 5.59001 12.7104 5.20001C12.6179 5.1073 12.508 5.03375 12.387 4.98357C12.2661 4.93339 12.1364 4.90756 12.0054 4.90756C11.8744 4.90756 11.7448 4.93339 11.6238 4.98357C11.5028 5.03375 11.3929 5.1073 11.3004 5.20001L4.71041 11.79C4.61771 11.8825 4.54416 11.9924 4.49398 12.1134C4.4438 12.2344 4.41797 12.364 4.41797 12.495C4.41797 12.626 4.4438 12.7557 4.49398 12.8766C4.54416 12.9976 4.61771 13.1075 4.71041 13.2L11.3004 19.79C11.393 19.8826 11.5029 19.956 11.6239 20.0061C11.7448 20.0562 11.8745 20.082 12.0054 20.082C12.1363 20.082 12.266 20.0562 12.387 20.0061C12.5079 19.956 12.6178 19.8826 12.7104 19.79C12.803 19.6974 12.8764 19.5875 12.9265 19.4665C12.9766 19.3456 13.0024 19.2159 13.0024 19.085C13.0024 18.9541 12.9766 18.8244 12.9265 18.7035C12.8764 18.5825 12.803 18.4726 12.7104 18.38L7.83041 13.5H19.0004C19.5504 13.5 20.0004 13.05 20.0004 12.5C20.0004 11.95 19.5504 11.5 19.0004 11.5Z" fill="white"/>
</svg>
