<svg width="30" height="30" viewBox="0 0 30 30" fill="none" xmlns="http://www.w3.org/2000/svg">
<path d="M16.1195 10.5214C16.1195 11.7092 15.6476 12.8483 14.8077 13.6882C13.9678 14.5281 12.8287 15 11.6409 15C10.4531 15 9.3139 14.5281 8.47399 13.6882C7.63408 12.8483 7.16223 11.7092 7.16223 10.5214C7.16223 9.33355 7.63408 8.19439 8.47399 7.35449C9.3139 6.51458 10.4531 6.04272 11.6409 6.04272C12.8287 6.04272 13.9678 6.51458 14.8077 7.35449C15.6476 8.19439 16.1195 9.33355 16.1195 10.5214ZM20.5981 21.7179C20.5981 22.9547 19.5956 23.9573 18.3588 23.9573H4.92291C3.68617 23.9573 2.68359 22.9547 2.68359 21.7179C2.68359 19.2435 6.69197 17.2393 11.6409 17.2393C16.5898 17.2393 20.5981 19.2435 20.5981 21.7179ZM23.6772 17.7991C24.141 17.7991 24.5169 18.1751 24.5169 18.6389C24.5169 19.1027 24.141 19.4786 23.6772 19.4786C23.2134 19.4786 22.8375 19.1027 22.8375 18.6389C22.8375 18.1751 23.2134 17.7991 23.6772 17.7991ZM22.2776 11.641C22.2776 11.9502 22.027 12.2008 21.7178 12.2008H21.158C20.8488 12.2008 20.5981 11.9502 20.5981 11.641C20.5981 10.7502 20.952 9.89579 21.582 9.26586C22.2119 8.63593 23.0663 8.28204 23.9571 8.28204C24.848 8.28204 25.7023 8.63593 26.3323 9.26586C26.9622 9.89579 27.3161 10.7502 27.3161 11.641C27.3161 12.7282 26.7719 13.7404 25.8672 14.3372L25.5392 14.5533C25.2249 14.7607 24.967 15.0429 24.7886 15.3745C24.6102 15.7061 24.5169 16.0768 24.5169 16.4533C24.5169 16.5782 24.4157 16.6795 24.2908 16.6795H23.0636C22.9387 16.6795 22.8375 16.5782 22.8375 16.4533C22.8375 15.1243 23.5048 13.8837 24.6144 13.1514L24.9424 12.9353C25.3757 12.6487 25.6366 12.1639 25.6366 11.6444C25.637 11.199 25.4605 10.7716 25.1459 10.4563C24.8312 10.141 24.4042 9.96366 23.9588 9.96321C23.7382 9.96299 23.5198 10.0062 23.316 10.0904C23.1121 10.1746 22.9268 10.2981 22.7707 10.4539C22.4554 10.7686 22.2781 11.1956 22.2776 11.641Z" fill="#FF3E71"/>
</svg>
