<svg width="30" height="30" viewBox="0 0 30 30" fill="none" xmlns="http://www.w3.org/2000/svg">
<path d="M12.3981 15.2089C12.3981 13.9455 13.4262 12.9173 14.6896 12.9173H17.745V6.80654C17.745 6.3849 17.4035 6.04271 16.9811 6.04271H6.28727C5.86488 6.04271 5.52344 6.3849 5.52344 6.80654V23.6111C5.52344 24.0328 5.86488 24.375 6.28727 24.375H16.9811C17.4035 24.375 17.745 24.0328 17.745 23.6111V18.2642V17.5004H14.6896C13.4262 17.5004 12.3981 16.4722 12.3981 15.2089Z" fill="#FF3E71"/>
<path d="M23.6839 15.6914C23.6863 15.6885 23.6882 15.6855 23.6905 15.6826C23.7036 15.6661 23.7163 15.6492 23.728 15.6316C23.7335 15.6234 23.7381 15.6148 23.7433 15.6064C23.751 15.5937 23.7589 15.5812 23.7659 15.5681C23.7717 15.5574 23.7765 15.5463 23.7817 15.5353C23.7871 15.5239 23.7928 15.5128 23.7976 15.5011C23.8028 15.4886 23.807 15.4758 23.8115 15.4631C23.8152 15.4526 23.8193 15.4422 23.8226 15.4314C23.8272 15.4164 23.8306 15.4013 23.8342 15.3861C23.8364 15.3773 23.8389 15.3686 23.8408 15.3596C23.845 15.3388 23.8479 15.3178 23.8503 15.2968C23.8507 15.2932 23.8515 15.2897 23.8519 15.286C23.8571 15.2347 23.8571 15.1829 23.8519 15.1316C23.8515 15.1279 23.8507 15.1244 23.8503 15.1208C23.8479 15.0998 23.8449 15.0788 23.8408 15.058C23.839 15.049 23.8364 15.0403 23.8342 15.0314C23.8306 15.0163 23.8272 15.0011 23.8226 14.9862C23.8193 14.9754 23.8152 14.965 23.8115 14.9545C23.807 14.9418 23.8028 14.9289 23.7976 14.9164C23.7928 14.9048 23.7871 14.8936 23.7817 14.8823C23.7765 14.8713 23.7717 14.8603 23.7659 14.8495C23.7589 14.8364 23.751 14.8238 23.7433 14.8112C23.7381 14.8028 23.7335 14.7942 23.728 14.786C23.7163 14.7683 23.7036 14.7515 23.6905 14.7349C23.6882 14.7321 23.6863 14.7291 23.6839 14.7262C23.6667 14.7051 23.6485 14.685 23.6291 14.6659L20.5766 11.6133C20.2779 11.3147 19.7952 11.3147 19.4965 11.6133C19.1979 11.912 19.1979 12.3947 19.4965 12.6934L21.248 14.4449H14.6896C14.2672 14.4449 13.9258 14.7871 13.9258 15.2087C13.9258 15.6304 14.2672 15.9726 14.6896 15.9726H21.248L19.4965 17.724C19.1979 18.0227 19.1979 18.5055 19.4965 18.8041C19.6455 18.9531 19.841 19.0279 20.0366 19.0279C20.2321 19.0279 20.4277 18.9531 20.5766 18.8041L23.6292 15.7516C23.6484 15.7326 23.6667 15.7125 23.6839 15.6914Z" fill="#FF3E71"/>
</svg>
