<svg width="20" height="20" viewBox="0 0 20 20" fill="none" xmlns="http://www.w3.org/2000/svg">
<path d="M15.9256 7.44926V5.37037C15.9256 2.40926 13.2671 0 9.99971 0C6.7323 0 4.07378 2.40926 4.07378 5.37037V7.44926C2.81416 7.6663 1.85156 8.76407 1.85156 10.0852V17.323C1.85156 18.7989 3.05267 20 4.52897 20H15.4705C16.9467 20 18.1479 18.7989 18.1479 17.3226V10.0848C18.1479 8.76407 17.1853 7.6663 15.9256 7.44926ZM4.81453 5.37037C4.81453 2.81741 7.14045 0.740741 9.99971 0.740741C12.859 0.740741 15.1849 2.81741 15.1849 5.37037V7.40741H4.81453V5.37037ZM17.4071 17.3226C17.4071 18.3904 16.5382 19.2593 15.4705 19.2593H4.52897C3.46119 19.2593 2.5923 18.3904 2.5923 17.3226V10.0848C2.5923 9.01704 3.46119 8.14815 4.52897 8.14815H15.4705C16.5382 8.14815 17.4071 9.01704 17.4071 10.0848V17.3226Z" fill="#29291E"/>
<path d="M10 10.3704C9.183 10.3704 8.51855 11.0348 8.51855 11.8519V14.0741C8.51855 14.8911 9.183 15.5556 10 15.5556C10.8171 15.5556 11.4815 14.8911 11.4815 14.0741V11.8519C11.4815 11.0348 10.8171 10.3704 10 10.3704ZM10.7408 14.0741C10.7408 14.4826 10.4086 14.8148 10 14.8148C9.59152 14.8148 9.2593 14.4826 9.2593 14.0741V11.8519C9.2593 11.4433 9.59152 11.1111 10 11.1111C10.4086 11.1111 10.7408 11.4433 10.7408 11.8519V14.0741Z" fill="#29291E"/>
</svg>
