<svg width="25" height="24" viewBox="0 0 25 24" fill="none" xmlns="http://www.w3.org/2000/svg">
<path d="M18.269 13.804C16.8922 13.6788 16.1413 15.5562 15.14 16.0569C13.5129 16.933 10.509 13.804 10.509 13.804C10.509 13.804 7.38001 10.8001 8.13097 9.17304C8.75678 8.17176 10.6342 7.42079 10.509 6.04402C10.3839 4.79241 7.63033 0.286624 6.25356 1.53823C3.2497 4.29177 2.99938 5.41822 2.99938 7.67111C2.87422 11.5511 7.88065 16.4324 7.88065 16.4324C8.38129 16.933 12.7619 21.4388 16.6419 21.3136C18.8948 21.3136 20.0212 21.0633 22.7748 18.0595C24.0264 16.6827 19.6458 13.9292 18.269 13.804Z" fill="#FF3E71"/>
</svg>
