<svg width="30" height="30" viewBox="0 0 30 30" fill="none" xmlns="http://www.w3.org/2000/svg">
<path d="M11.4844 12.8906H15.2344V22.9688" stroke="#FF3E71" stroke-width="2.5" stroke-linecap="round" stroke-linejoin="round"/>
<path d="M10.957 23.2031H19.043" stroke="#FF3E71" stroke-width="2.5" stroke-miterlimit="10" stroke-linecap="round"/>
<path d="M15 9.375C14.6292 9.375 14.2666 9.26503 13.9583 9.05901C13.65 8.85298 13.4096 8.56014 13.2677 8.21753C13.1258 7.87492 13.0887 7.49792 13.161 7.13421C13.2334 6.77049 13.412 6.4364 13.6742 6.17418C13.9364 5.91195 14.2705 5.73338 14.6342 5.66103C14.9979 5.58868 15.3749 5.62581 15.7175 5.76773C16.0601 5.90964 16.353 6.14996 16.559 6.45831C16.765 6.76665 16.875 7.12916 16.875 7.5C16.875 7.99728 16.6775 8.4742 16.3258 8.82583C15.9742 9.17746 15.4973 9.375 15 9.375Z" fill="#FF3E71"/>
</svg>
